<mxfile host="Electron" modified="2024-03-19T20:39:08.012Z" agent="Mozilla/5.0 (Windows NT 10.0; Win64; x64) AppleWebKit/537.36 (KHTML, like Gecko) draw.io/21.6.8 Chrome/114.0.5735.289 Electron/25.5.0 Safari/537.36" etag="oJoI1oKiI3dGNcRbZFrq" version="21.6.8" type="device">
  <diagram name="Страница — 1" id="_NNJ8Qyopue1inblywc9">
    <mxGraphModel dx="461" dy="624" grid="1" gridSize="10" guides="1" tooltips="1" connect="1" arrows="1" fold="1" page="1" pageScale="1" pageWidth="827" pageHeight="1169" math="0" shadow="0">
      <root>
        <mxCell id="0" />
        <mxCell id="1" parent="0" />
        <mxCell id="gyxe0gYEYOUFi3LcDs3f-8" style="edgeStyle=orthogonalEdgeStyle;rounded=0;orthogonalLoop=1;jettySize=auto;html=1;entryX=0.5;entryY=0;entryDx=0;entryDy=0;" edge="1" parent="1" source="gyxe0gYEYOUFi3LcDs3f-1" target="gyxe0gYEYOUFi3LcDs3f-7">
          <mxGeometry relative="1" as="geometry" />
        </mxCell>
        <mxCell id="gyxe0gYEYOUFi3LcDs3f-1" value="" style="shape=parallelogram;perimeter=parallelogramPerimeter;whiteSpace=wrap;html=1;fixedSize=1;" vertex="1" parent="1">
          <mxGeometry x="120" y="50" width="100" height="30" as="geometry" />
        </mxCell>
        <mxCell id="gyxe0gYEYOUFi3LcDs3f-3" value="" style="shape=parallelogram;perimeter=parallelogramPerimeter;whiteSpace=wrap;html=1;fixedSize=1;" vertex="1" parent="1">
          <mxGeometry x="120" y="210" width="100" height="30" as="geometry" />
        </mxCell>
        <mxCell id="gyxe0gYEYOUFi3LcDs3f-4" value="" style="shape=image;verticalLabelPosition=bottom;labelBackgroundColor=default;verticalAlign=top;aspect=fixed;imageAspect=0;image=data:image/png,iVBORw0KGgoAAAANSUhEUgAAACAAAAAmCAYAAAClI5npAAAAAXNSR0IArs4c6QAAAARnQU1BAACxjwv8YQUAAAAJcEhZcwAADsMAAA7DAcdvqGQAAAFiSURBVFhH7ZddjYUwEEaHdQAWsIAHcIAGkIADHKAAMIACDPDGEzzwCmhg+dihaTb8tHdJyCY9yYSm9KandDrNtZYVepEvfr6GETACRsAI/Elgnmcqy5KCICDHcciyLBHoi+OY+r7n0SegFH9CVVWLbdso45fRdR3/4piPBKIoEhNAoiiKZZqm7V1d10IMzzu0BbIsE5N7nicmlgnDcHvv+z73nKMl0DSNmByrO/u8aZpuY/C8Q0sAK9oF8CWeQFkAeyuv/imUj2Ge59wiWpOQWw/AIrfsmY1ALjyFkoCcfBrOSihtQdu23CJaE5Fbz6AkMAwDt57nf19GR+BywiW0bi/33PCTCteg1mMoAqfhqPyCvUxjzDiO3HuNkgBK7i6AQK2XyzBuRrlK6hxT5TMlT3AV+Fo6KAtgxXIx+h14h3Kti7IAwN4nSbK4rismxpWMW+8sL+4wf06NgBEwAi8LEH0DD465TvnVxEsAAAAASUVORK5CYII=;" vertex="1" parent="1">
          <mxGeometry x="162.57999999999998" y="215" width="16.84" height="20" as="geometry" />
        </mxCell>
        <mxCell id="gyxe0gYEYOUFi3LcDs3f-5" value="" style="shape=image;verticalLabelPosition=bottom;labelBackgroundColor=default;verticalAlign=top;aspect=fixed;imageAspect=0;image=data:image/png,iVBORw0KGgoAAAANSUhEUgAAAHcAAAAtCAYAAACULPQbAAAAAXNSR0IArs4c6QAAAARnQU1BAACxjwv8YQUAAAAJcEhZcwAADsMAAA7DAcdvqGQAAAVRSURBVHhe7ZxLLzRNFMfL+wEIdmKFhYSEuISEDRtCYotvgKWFBVsRfAAhsXX5Au4LCSLiLli5RERsEN+At/8158xzpqZ7dJvpQU/9khOnu6unqutf11NPnrxPB2WJJP/RX0sEseJGGCtuhLHiRhgrboSx4kYYK26EseJGGCtuhLHiRhgrboQJJG5nZ6fKy8tLMNxj3t7e1PT0tKqoqNDPioqK1NDQkLq/v6cU/9jb21N9fX3x38E7eDfbXFxcqLGxMdXY2BgvC8qNsqGMYbC8vBzPD3nh2sSsH/goayBwcOCXu7u7z9nZWRw0xK2jo0M/Oz8//ywsLEx4xob7eM44grumgw0ODlKqcHl9ff3s7e11LYO03d1deiN9kGdDQ4NrPqhbZmlpyTUN6vHl5YVSfU0gcRkIwBmOjo7GhS0vL/+cmprSBl8WDBUp38VfpJO/xZbJCnXDbIgoAzc+VLIUgMudLvh91Any5e9Dx+B8+J6XsGyLi4s6nR++JS5E4cxQQBQYIpvIwsNQiUh7dnZGKWLgw810YSGFxd+dnR168o+VlZV4WXhkShfki9/iRgRkPUJcGHw0Lhab77FNTk7q+35IW1yYm7BAVhKb/DiJHCIzVaFuyF7JFWgiKzTMsqDeOB+MGM78q8uH4VsiO0kQcdNeLTutXw0PD9NVIl1dXeTFcHqkqqmpoatE6urqyFNqY2ODvMyCBdvx8bH2nYpVra2t2jdZW1sjT6n6+np0ALrKLCcnJ+TFyoO6XF9fV8XFxXQ3mYKCAvJ8ENM4GOawnApOB8N84oU5/GQa9AY5HJu9g5ELRqSTC51Mw+Vhc5sigOy5XmncCH2f6ywiyFOqtLSUvOyztbWl3t/ftY9tBfcObDlWV1f1dgjbsYGBAX0fvWh7e1uVlZXp60yDbQ2XB2BU8xpJDg8PyVOeaVwhkQMRpOfKVuc1x4Gwe66fbQ8bFnRh9lhgroq98pOLTdTlx8cHPfmanIlQbW5ukpeIs4BRTqUpp8EqZwGonOFazczMhNZjmcvLS/KUchqeZ34HBwfkxeb/IOSEuIiQySHQadRxOzo60ouYkZERvQBMtZjJJLKxtbW1kZcMpgampaVFR6v8khPiPj8/k/d74FU7aG5uJi8Z2QiamprI80fODMu/CTNm7bU9lIsuTB9BRxUrrgsI5ONABAchYbC/v0+e0vO9F3K+xUFDUHJC3JKSEvJieJ32QExsifr7+/V1WPPv6ekpeUq1t7eTl4w8BfLq3akIXdzb21vylHp6eiLv+/ARGAz7Uz9gJSr32z09PQnvYsGF3oo5bWJiQg+BCwsL9NQdefyJBhEEOd9WV1eTl4w8Kq2qqiIvJrqfkeVb4j48PJCXKJ4JMnf2b3Sl1OPjI3nJXF9fkxfDz5B4dXVF3teMj4+Tp/Q81t3dHRcHwqO3oqwIXszPzwfqtTKM+BUQTNZJZWUleanhkOjc3Jyqra31N2VgsxsEBBvMsBkC4GY4D5tyBANkOrznFsjAPfOIEO+6hQhlGgRTgmCWxzQECbzCkiYyOAPfL/IwBd+cCvPsnM2rbkwCiWueBkkzP9AtDZs82TAjU6aZyGf4+KAgMiSFQYND9CpV3NsN+RtBznxlHfp5T54cIU80Dr8E7rk/DX8ozCtklw2kuEEbRrb4U+LKIQ1D00+BIZHL8dXQ+pP8KXG5t7gdaGcTHloxpHv944PfwJ8RlxdDPy0sn+b8dmHBnwliOJWpzzwR6M9WcN+N/Px8vQ++ubn5VmAhm9j/EyPC2NhyhLHiRhgrboSx4kYYK26EseJGGCtuhLHiRhal/gctI/rVus4bvwAAAABJRU5ErkJggg==;" vertex="1" parent="1">
          <mxGeometry x="143.56" y="55" width="52.89" height="20" as="geometry" />
        </mxCell>
        <mxCell id="gyxe0gYEYOUFi3LcDs3f-9" style="edgeStyle=orthogonalEdgeStyle;rounded=0;orthogonalLoop=1;jettySize=auto;html=1;entryX=0.5;entryY=0;entryDx=0;entryDy=0;" edge="1" parent="1" source="gyxe0gYEYOUFi3LcDs3f-7" target="gyxe0gYEYOUFi3LcDs3f-3">
          <mxGeometry relative="1" as="geometry" />
        </mxCell>
        <mxCell id="gyxe0gYEYOUFi3LcDs3f-7" value="" style="rounded=0;whiteSpace=wrap;html=1;" vertex="1" parent="1">
          <mxGeometry x="95" y="120" width="150" height="50" as="geometry" />
        </mxCell>
        <mxCell id="gyxe0gYEYOUFi3LcDs3f-6" value="" style="shape=image;verticalLabelPosition=bottom;labelBackgroundColor=default;verticalAlign=top;aspect=fixed;imageAspect=0;image=data:image/png,iVBORw0KGgoAAAANSUhEUgAAAPIAAAAsCAYAAABfXOX7AAAAAXNSR0IArs4c6QAAAARnQU1BAACxjwv8YQUAAAAJcEhZcwAADsMAAA7DAcdvqGQAAAmqSURBVHhe7Zy7ixRPEMf7fn+Bj8xI1ECRQ/CNL1DwiamouSIaGCpoYCCIipHJaWCsIAciKD5AwRe+UVA0UBEDExX9C7zffGerzu/2dvfM7s7dzc7VB5qtnemdru6uqu6Z7tmhsQxnGMZA8598GoYxwJgjG0YDMEc2jAZgjmwYDcAcuQH8+vXLXbx40W3bts0NDQ3ladasWe7QoUP5OaN3rly5Mt6mnHC8VuCptTG43LhxY2zmzJl5unz5cn7s8+fPY/Pnz8dqxNjBgwfzY0bvoD13796dt6cmHKsT5sgDDBwXRgUn/vnzpxxtcebMmfFzRv88fPhw3Inr2KY2tR5Q3r596/bu3ZvL169fd7Nnz85l5evXr/nnypUr80+jP96/fy+Sc1u2bBGpPpgjDyhHjx7NP7du3erWrVuXywru30ZGRnL58OHD+afRH9++fRPJuaVLl4pUH8yRBxCMxrdv385ldVQcgwPjgRdG6mz657Kpt9uxY0d+3uiPV69eieTcmjVrRKoPtkVzADl79uz4iKzAcTGNXrZsmRseHnZ79uyRM0YV4Em1UkeXMUceQDDqYkTGtPrWrVty1JgoHj165NavX5/Ly5cvdy9evMjlOtHz1BpTOaxTrlixom19bcGCBbmh1W6drUKwNotREXXVOqM9fNAG2j5Y1z1+/HhwXZfzIVWx/vvlyxeR+gNGjNFddUMdfFAWdEYdkQd1we98/Hxot5s3b8rZ8uA60IPbDNeEnr3Yna7D8/WgG3RFWVU+6PLbAL7i93XIvvA9CUbkbsAyh7+mFkpNXb988+bN+BotJxxTUm107NgxydUC7RTKl422kqMTnEOebHSQI+1ARyyRYAmqH6CrrxeSrlcDXcf28+DYp0+fJNc/nfx8SFjaKQPaNaYTp25sL6a/JpxDO+t3rnu36HKhn1hf1JHL45Tqz64c2e8MGCuOASjARnnhwoX8eJNAR2jHYkMA6sztoaijxRJ+B2JOrEnb1kfXiJHQzno95NdrQkc93i34ndZB+5HLVIPitdVQ0qCVcmIk2FER0IkNHDKcUPEdskwQ8x0Lv9GNHigvFDR63Qii10L//Pjxo63tNGj7dfQTDxY+pR0ZhfBIFIpM6DA9XzbKxihyhn5Sr7qhzjA6tIXCegLtMOTTTmcnQEL5egy/13y+YcX0RPlFjsE6dgt+C73YUdjw1OChA5LaAo6xjeAaqiuSBgUcY4NFviI4P49gDOuI8lKgbpw3FjS5PkXXTAGd/eCi19X64xPfkQ9thIS+1HxIMUo7Ml9QI22IogLLopWaiNSrI4dQA8OnGlJoNsLl4zw+QwYJY9F8KT3hNPi95scn+qjKujFs+JDRPzByGBvDQQt5oFPIUbQNNF8KvmaoTKZM++H3nI8Dlg/bIepSFdBBrwt/0jr6A6TalKYYpTyOL1bUkNMNbRc4MtomNlpoPiQYUcx42XAmyil7gZ0p5pyA86mzhOrBNpVyZAQszYcUmgky3H6hgAp4ylzknHw91K0quP7QAZ8hfTkf2jNGKUcu0zjTEb6VQEoFOc6HDimTr06osWkaGRmRM+2wIyPFjJ/zpRyE86F9iyhyPH80jk2pFc5bZWDlGQlSLJiVDXiF1uJHRBuN/+F3Rqyjy44qnA8jfJ1gg4ZB/f37V860gxmJ5ks5HudLTW1xDc2XuqVTWM+QI/NziKI29vutSvzAiLJCsI2lAl7hOvLdu3dFci4rvGNz/nSG144zo+jY86x8/PhRJOcyw4zuunr+/LlI9dqYj7XP379/y7fWtlCsb4bgzRInT54UqZM7d+6I5NyqVatEagftmxm4fHNu+/btIsVhPUNbKa9duyaSc7t27RIpDPcH+rdKXr58KZJzWVBz8+bNk2/t3L9/X6T01tBCR+YL1XGz+FTCRrtv3z6ROnn8+LFIrWAY48GDByK5fJtlXeBAlI140f3b2MjABrp582aR2kFgUAdFYIsNDh8+fBCpRSxQKv4mlDlz5oj0Dw4gRXumuT+qDKxoJw5QBw4cEKkT1nfRokUidVLoyNwxddwsPlX4Rrt69WqROuEN96lRhTutTq8fciBKGTQ7Xjb9jjpo2ZkHv3GE6xXx5MkTkVoBxx/l/JlFyjHQv7xLrMrA+uzZM5Faei5ZskS+tYMZieqLGUFqNlzoyBw5JhP+25qqU2j7YLew0aY6A+ibSiBmPP4oFZtqTQUciDZu3ChSJ+xIeHkjBo90GzZsEKmT169fi+RKtcfVq1dFcsHbl+/fv4vUIuUYly5danP6KgPru3fvREoHsqdPn4pUPCPoea/1dIeNNtXJHDRS08i63h8DDkSLFy8WqZN79+6J1BrBEDRDlJ15/PnzRyTn5s6dK1IYBEKeIe3cuVOk7sFIyG+XhUb3fih7u8r51q5dK1KYyhwZUxGMoqGXB3oBb/WMtZ6qV56K7rXKwEabGqV4w33qgQmPUqnRfbLxZy+ptuNgVGbmUeQgM2bMEKmYc+fOidQKmL2+hw07xvMOfpZR9W0OB8bU7SoHvIULF4oUptCR0SgKj0IMOkdfrWMlmwwbbaozOKqmHJ4fnKVGvcmGA1HqPpXv51K3GvzgrMhBeLTiabYPytZ/RAHnz58XKY3/5pUORqjHqVOn5KhzmzZtEql//IEuFhj5fr7MjKDQkXmad/r06bYHACgMr1dhpMG0BlHsyJEjcra5cCOD1EMTnu6lHJTzMWhvvPY2VbDhpe57+ZlBykH5/pAJzeg4cGB0Qh4fHNu/f798ay3lxEZj32lOnDiR9yWAU6N89MPo6GhboGagH/KFdCkDt1Nqhsb38357wh46XtfMpppJeGdJKmVKTZvNIrypIJuxRDdHZFPItjZKwfmwQQJtqVsJY9s+JwPUT/VKbY/kDR5ld2rBZgBsDOVkI0/HTitsPuH8vOkG+rB+ZWzQ34jhJ60j64nfAJyDjigHfdsL3E6pfvX9DvVCmSgb3/2+KHRkwHtTQwkKTacdX9weqHvMkdHYmk+NNgZ3MKeUU0w06FPWJWW87FCpnVp+cNOE9gltl4QOarypVGbXF0D5cMbQNdg5YgMYAks/ts518Z3RJ6QnjnEwU0o5MkDncDTDBfE9dNGmw6NEau+57/ApYBx8XbRt0T7giYaNGf0doxuHBzqyIS8CQFGwwvXRzr5Do73QxkXl+aBd2ZZjdgy9VE+UXeR4ZdAykYr6F+c1QOIzNWDaf3YZRgOwdWTDaADmyIbRAMyRDaMBmCMbRgMwRzaMBmCObBgNwBzZMBqAObJhNABzZMNoAObIhtEAzJENY+Bx7n/mphwdR1oq6gAAAABJRU5ErkJggg==;" vertex="1" parent="1">
          <mxGeometry x="105" y="133" width="132" height="24" as="geometry" />
        </mxCell>
      </root>
    </mxGraphModel>
  </diagram>
</mxfile>
